# xmcd
#
# Track frame offsets: 
#        150
#        17403
#        33136
#        52876
#        70928
#        85284
#        98826
#        110047
#        123646
#        136781
#        148413
#        157781
#        166148
#        179463
#        196257
#        213413
#        226258
#        240605
#        252293
#        266548
#        287186
#        302024
#
# Disc length: 4179 seconds
#
# Revision: 2
# Processed by: cddbd v1.5.2PL0 Copyright (c) Steve Scherf et al.
# Submitted via: ExactAudioCopy v0.99pb5
#
DISCID=2f105116
DTITLE=Townes Van Zandt - Texas Troubadour - Disc 4
DYEAR=1900
DGENRE=Country
TTITLE0=Loretta
TTITLE1=No Place To Fall
TTITLE2=Flyin' Shoes
TTITLE3=Who Do You Love
TTITLE4=When She Don't Need Me
TTITLE5=Dollar Bill Blues
TTITLE6=Rex's Blues
TTITLE7=Pueblo Waltz
TTITLE8=Brother Flower
TTITLE9=Snake Song
TTITLE10=The Spider Song
TTITLE11=Upon My Soul
TTITLE12=Buckskin Stallion Blues
TTITLE13=At My Window
TTITLE14=Two Girls
TTITLE15=Fraternity Blues
TTITLE16=White Freight Liner Blues
TTITLE17=Talking Thunderbird Blues
TTITLE18=Nine Pound Hammer
TTITLE19=Chauffeur's Blues
TTITLE20=Cocaine Blues
TTITLE21=Only Him Or Me
EXTD=
EXTT0=
EXTT1=
EXTT2=
EXTT3=
EXTT4=
EXTT5=
EXTT6=
EXTT7=
EXTT8=
EXTT9=
EXTT10=
EXTT11=
EXTT12=
EXTT13=
EXTT14=
EXTT15=
EXTT16=
EXTT17=
EXTT18=
EXTT19=
EXTT20=
EXTT21=
PLAYORDER=
